<?xml version="1.0" encoding="UTF-8" standalone="no"?>
<!DOCTYPE svg PUBLIC "-//W3C//DTD SVG 1.1//EN" "http://www.w3.org/Graphics/SVG/1.1/DTD/svg11.dtd">
<svg width="100%" height="100%" viewBox="0 0 1313 1322" version="1.1" xmlns="http://www.w3.org/2000/svg" xmlns:xlink="http://www.w3.org/1999/xlink" xml:space="preserve" xmlns:serif="http://www.serif.com/" style="fill-rule:evenodd;clip-rule:evenodd;stroke-linejoin:round;stroke-miterlimit:2;">
    <g>
        <g transform="matrix(10.5499,0,0,10.7014,50.0313,38.3874)">
            <rect x="-5.453" y="-3.113" width="125.866" height="122.572" style="fill:rgb(248,227,139);"/>
        </g>
        <g transform="matrix(10.5499,0,0,10.7014,50.0313,38.3874)">
            <path d="M57.478,107.391L27.034,107.076L26.719,80.151L32.431,69.98L39.498,65.052L49.136,64.084L63.25,63.979L73.069,65.936L79.222,70.284L83.691,79.252L84.516,95.679L84.236,107.182L57.478,107.391Z" style="fill:white;"/>
        </g>
        <g transform="matrix(10.5499,0,0,10.7014,50.0313,38.3874)">
            <path d="M34.244,37.514L31.725,37.514L29.545,39.284L28.596,40.952L28.359,44.008L28.615,49.372L31.894,51.188L35.917,50.983L37.335,55.38L40.258,58.825L49.843,59.554L65.267,59.625L72.35,57.516L75.183,52.037L79.889,51.565L82.146,48.61L83.131,44.84L82.817,40.191L77.856,37.204L75.355,35.252L72.541,32.392L68.322,31.002L59.236,30.494L56.662,30.621L56.007,22.897L58.802,21.58L60.214,20.301L60.589,17.533L59.28,15.406L56.787,14.217L54.451,13.91L52.235,15.476L51.435,20.074L54.35,22.481L55.361,23.024L55.48,25.972L55.303,30.435L44.595,30.353L38.915,31.802L36.649,33.613L34.244,37.514Z" style="fill:white;"/>
        </g>
        <g transform="matrix(3.57577,0,0,3.58528,-3542.92,-770.354)">
            <path d="M1162.69,313.979C1159.98,313.979 1157.26,313.977 1154.55,313.973C1147.07,313.964 1139.33,313.956 1131.71,314.016C1129.01,314.034 1126.54,314.336 1124.36,314.913C1114.91,317.412 1107.75,324.754 1105.17,334.377L1102.4,334.377C1092.91,334.377 1085.18,342.1 1085.18,351.594L1085.18,365.488C1085.18,374.981 1092.91,382.704 1102.4,382.704L1109.44,382.704C1110.39,388.5 1112.26,392.968 1115.29,396.668C1120.86,403.471 1128.2,406.927 1137.12,406.94C1145.92,406.955 1154.78,406.959 1163.62,406.959C1173.51,406.959 1183.36,406.953 1193.04,406.947L1199.5,406.943C1201.12,406.943 1202.78,406.877 1204.43,406.746C1216.36,405.78 1226.68,396.299 1228.45,384.688L1228.52,384.184C1228.6,383.69 1228.67,383.197 1228.75,382.704L1235.6,382.704C1245.09,382.704 1252.82,374.981 1252.82,365.488L1252.82,351.594C1252.82,342.1 1245.09,334.377 1235.6,334.377L1233.21,334.377C1231.78,329.102 1228.81,324.303 1224.67,320.662C1219.63,316.234 1213.18,313.852 1206.51,313.953C1199.35,314.062 1192.06,314.033 1185,314.005C1183.16,313.998 1181.31,313.991 1179.47,313.986C1179.4,313.982 1179.34,313.979 1179.27,313.979L1172.32,313.979L1172.32,296.744C1180.26,295.571 1186.37,288.718 1186.37,280.461C1186.37,271.384 1178.98,264 1169.91,264C1160.83,264 1153.44,271.384 1153.44,280.461C1153.44,288.185 1158.79,294.68 1165.98,296.446L1165.98,313.979L1162.69,313.979ZM1102.4,376.361C1096.4,376.361 1091.53,371.483 1091.53,365.488L1091.53,351.594C1091.53,345.598 1096.4,340.72 1102.4,340.72L1104.17,340.72C1104.07,342.713 1104.17,344.725 1104.47,346.734C1105.96,356.839 1107.32,366.88 1108.58,376.361L1102.4,376.361ZM1233.96,344.856C1234.13,343.482 1234.2,342.1 1234.15,340.72L1235.6,340.72C1241.6,340.72 1246.47,345.598 1246.47,351.594L1246.47,365.488C1246.47,371.483 1241.6,376.361 1235.6,376.361L1229.69,376.361C1231.24,365.771 1232.67,355.19 1233.96,344.856ZM1159.79,280.461C1159.79,274.882 1164.33,270.343 1169.91,270.343C1175.49,270.343 1180.02,274.882 1180.02,280.461C1180.02,286.041 1175.49,290.58 1169.91,290.58C1164.33,290.58 1159.79,286.041 1159.79,280.461ZM1169.13,320.323C1169.14,320.323 1169.14,320.324 1169.15,320.324C1169.16,320.324 1169.16,320.323 1169.17,320.323L1175.6,320.323C1178.72,320.324 1181.85,320.336 1184.97,320.348C1192.06,320.376 1199.39,320.404 1206.61,320.295C1206.71,320.293 1206.81,320.292 1206.91,320.292C1216.99,320.292 1225.82,327.886 1227.54,338.077C1227.87,340.063 1227.92,342.08 1227.67,344.07C1226.24,355.54 1224.63,367.314 1222.88,379.066C1222.67,380.458 1222.46,381.846 1222.25,383.237L1222.17,383.738C1220.86,392.372 1212.84,399.701 1203.92,400.423C1202.44,400.541 1200.96,400.601 1199.5,400.601L1193.03,400.604C1174.71,400.615 1155.76,400.627 1137.13,400.598C1130.1,400.586 1124.56,397.988 1120.2,392.651C1117.66,389.551 1116.21,385.768 1115.51,380.393L1115.34,379.119C1113.95,368.571 1112.43,357.236 1110.74,345.808C1110.36,343.211 1110.39,340.616 1110.83,338.095C1112.31,329.66 1118.11,323.126 1125.98,321.044C1127.65,320.604 1129.59,320.374 1131.76,320.359C1136.64,320.32 1141.58,320.31 1146.47,320.31C1149.18,320.31 1151.88,320.313 1154.55,320.316C1157.26,320.319 1159.97,320.323 1162.69,320.323L1169.13,320.323Z" style="fill-rule:nonzero;"/>
        </g>
        <g transform="matrix(3.57577,0,0,3.58528,-3542.92,-770.354)">
            <path d="M1159.83,348.056C1159.87,343.918 1158.26,339.987 1155.3,336.988C1152.34,333.996 1148.43,332.324 1144.27,332.281C1144.22,332.281 1144.16,332.28 1144.11,332.28C1139.99,332.28 1136.1,333.877 1133.16,336.788C1130.15,339.757 1128.49,343.722 1128.48,347.954C1128.48,352.155 1130.09,356.086 1133.01,359.022C1135.94,361.958 1139.87,363.58 1144.08,363.589L1144.11,363.589C1152.7,363.589 1159.74,356.628 1159.83,348.056ZM1144.11,357.246L1144.09,357.246C1138.89,357.234 1134.82,353.158 1134.83,347.966C1134.83,345.438 1135.82,343.071 1137.62,341.3C1139.37,339.571 1141.67,338.624 1144.11,338.624L1144.21,338.624C1149.29,338.676 1153.54,342.966 1153.49,347.993C1153.43,353.1 1149.23,357.247 1144.11,357.246Z" style="fill-rule:nonzero;"/>
        </g>
        <g transform="matrix(3.57577,0,0,3.58528,-3542.92,-770.354)">
            <path d="M1194.21,363.589L1194.26,363.589C1198.4,363.589 1202.3,361.982 1205.23,359.06C1208.17,356.132 1209.8,352.236 1209.8,348.087C1209.81,343.925 1208.18,340.005 1205.22,337.05C1202.29,334.126 1198.42,332.518 1194.31,332.518L1194.25,332.518C1185.77,332.555 1178.81,339.476 1178.72,347.947C1178.68,352.072 1180.26,355.978 1183.19,358.945C1186.13,361.928 1190.05,363.578 1194.21,363.589ZM1194.27,338.861L1194.31,338.861C1196.72,338.861 1199,339.812 1200.74,341.542C1202.5,343.295 1203.46,345.617 1203.46,348.077C1203.46,350.53 1202.5,352.833 1200.76,354.564C1199.02,356.294 1196.71,357.247 1194.26,357.247L1194.23,357.247C1191.77,357.239 1189.45,356.26 1187.71,354.49C1185.98,352.735 1185.04,350.436 1185.06,348.014C1185.12,342.989 1189.25,338.883 1194.27,338.861Z" style="fill-rule:nonzero;"/>
        </g>
        <g transform="matrix(3.57577,0,0,3.58528,-3542.92,-770.354)">
            <path d="M1195.13,413.966L1142.87,413.966C1111.3,413.966 1085.27,438.126 1082.29,468.927C1082.11,470.869 1082.01,544.246 1082.01,546.237C1082.01,547.988 1083.43,549.408 1085.18,549.408L1252.82,549.408C1254.57,549.408 1255.99,547.988 1255.99,546.237C1255.99,544.382 1255.91,471.138 1255.74,469.325C1252.95,438.334 1226.84,413.966 1195.13,413.966ZM1088.44,543.065C1088.49,542.126 1088.57,469.785 1088.67,468.859C1091.66,441.594 1114.83,420.309 1142.87,420.309L1195.13,420.309C1223.36,420.309 1246.65,441.879 1249.38,469.405C1249.46,470.152 1249.52,542.31 1249.56,543.065L1088.44,543.065Z" style="fill-rule:nonzero;"/>
        </g>
        <g transform="matrix(3.57577,0,0,3.58528,-3542.92,-770.354)">
            <path d="M1152.24,384.667C1152.24,386.419 1153.66,387.839 1155.41,387.839L1184.4,387.839C1186.16,387.839 1187.58,386.419 1187.58,384.667C1187.58,382.916 1186.16,381.496 1184.4,381.496L1155.41,381.496C1153.66,381.496 1152.24,382.916 1152.24,384.667Z" style="fill-rule:nonzero;"/>
        </g>
    </g>
</svg>
