<?xml version="1.0" encoding="UTF-8" standalone="no"?><!DOCTYPE svg PUBLIC "-//W3C//DTD SVG 1.1//EN" "http://www.w3.org/Graphics/SVG/1.1/DTD/svg11.dtd"><svg width="100%" height="100%" viewBox="0 0 524 529" version="1.1" xmlns="http://www.w3.org/2000/svg" xmlns:xlink="http://www.w3.org/1999/xlink" xml:space="preserve" xmlns:serif="http://www.serif.com/" style="fill-rule:evenodd;clip-rule:evenodd;stroke-linecap:round;stroke-linejoin:round;stroke-miterlimit:1.5;"><rect x="0" y="-0.002" width="523.882" height="528.571" style="fill:#a0a0a0;"/><g id="Krokodil-grosse-Augen"><g><clipPath id="_clip1"><rect x="87.204" y="209.173" width="162.997" height="254.489"/></clipPath><g clip-path="url(#_clip1)"><path d="M205.95,456.946c0,0 -77.88,-27.894 -90.731,-44.529c-12.852,-16.635 -24.722,-47.214 -0.211,-76.151c24.511,-28.93 21.909,-26.099 21.909,-26.099c0,0 -27.277,-32.812 -6.455,-66.999c13.18,-21.627 44.041,-25.767 61.84,-19.287c18.885,6.879 32.487,25.468 30.142,30.353c0,0 10.204,-3.436 36.849,-3.523c26.994,-0.093 33.72,2.745 33.72,2.745c0,0 9.801,-19.008 29.477,-26.671c17.377,-6.772 50.662,-3.629 59.284,2.792c14.512,10.806 27.271,14.973 25.341,46.967c-0.843,13.917 -16.712,33.437 -16.712,33.437c0,0 15.572,13.259 21.56,24.763c5.988,11.511 27.528,47.945 -2.813,77.354c-33.377,32.347 -111.316,66.288 -203.2,44.848Z" style="fill:#2eb22b;stroke:#000;stroke-width:5.11px;"/></g><clipPath id="_clip2"><rect x="234.061" y="205.237" width="216.698" height="258.504"/></clipPath><g clip-path="url(#_clip2)"><path d="M318.696,457.025c0,0 77.88,-27.894 90.731,-44.529c12.852,-16.635 24.722,-47.214 0.211,-76.151c-24.511,-28.93 -21.909,-26.099 -21.909,-26.099c0,0 27.277,-32.812 6.455,-66.999c-13.18,-21.626 -44.041,-25.767 -61.84,-19.287c-18.885,6.879 -32.487,25.468 -30.142,30.353c0,0 -10.204,-3.436 -36.849,-3.523c-26.994,-0.093 -33.719,2.745 -33.719,2.745c0,0 -9.802,-19.008 -29.478,-26.671c-17.377,-6.772 -50.662,-3.628 -59.284,2.792c-14.512,10.806 -27.271,14.973 -25.341,46.968c0.843,13.916 16.712,33.436 16.712,33.436c0,0 -15.572,13.259 -21.56,24.763c-5.988,11.511 -27.528,47.945 2.813,77.354c33.377,32.347 111.316,66.288 203.2,44.848Z" style="fill:#2eb22b;stroke:#000;stroke-width:5.11px;"/></g><ellipse cx="173.343" cy="265.941" rx="35.144" ry="29.156" style="fill:#fff;stroke:#000;stroke-width:4.88px;stroke-linecap:butt;stroke-linejoin:miter;stroke-miterlimit:10;"/><ellipse cx="350.122" cy="265.941" rx="35.144" ry="29.156" style="fill:#fff;stroke:#000;stroke-width:4.88px;stroke-linecap:butt;stroke-linejoin:miter;stroke-miterlimit:10;"/><ellipse cx="172.948" cy="269.147" rx="11.938" ry="18.823"/><ellipse cx="348.89" cy="269.147" rx="11.938" ry="18.823"/><ellipse cx="262.24" cy="442.419" rx="118.183" ry="58.423" style="fill:#2eb22b;stroke:#000;stroke-width:4.89px;stroke-linecap:butt;stroke-linejoin:miter;stroke-miterlimit:10;"/><path d="M211.371,336.454c0,0 37.093,-16.091 102.813,0.159" style="fill:none;stroke:#000;stroke-width:5.11px;"/><path d="M232.993,352.474c0,0 26.339,-8.195 60.281,0.088" style="fill:none;stroke:#000;stroke-width:5.12px;"/><path d="M192.788,405.491c13.554,-4.739 26.897,-1.778 29.778,6.609c2.881,8.387 -5.784,19.044 -19.338,23.783c-13.554,4.74 -26.897,1.779 -29.778,-6.608c-2.881,-8.387 5.784,-19.044 19.338,-23.784Z"/><path d="M335.291,405.414c13.626,4.523 22.457,15.04 19.708,23.472c-2.75,8.432 -16.045,11.605 -29.671,7.082c-13.626,-4.523 -22.457,-15.041 -19.707,-23.472c2.749,-8.432 16.044,-11.606 29.67,-7.082Z"/><path d="M163.573,494.178l12.806,-29.964l16.648,39.75l16.272,-32.356l15.644,36.195l12.435,-33.191l15.864,34.227l14.387,-33.668l15.031,31.82l13.233,-33.996l17.66,29.404l10.881,-34.391l14.643,29.211l11.063,-35.375l14.282,27.705l12.073,-36.403l-24.78,8.326l-27.281,6.536l-31.68,5.531l-18.084,1.409l-21.318,0.656l-27.06,-1.685l-14.028,-1.878l-15.313,-2.758l-10.103,-2.378l-15.755,-4.397l-14.468,-4.845l-8.886,-3.727l15.834,40.242Z" style="fill:#fff;stroke:#000;stroke-width:5.11px;"/><path d="M145.041,452.483c116.473,51.382 232.946,0 232.946,0" style="fill:none;stroke:#000;stroke-width:4.9px;stroke-linecap:butt;stroke-linejoin:miter;stroke-miterlimit:10;"/></g><g><path d="M203.092,160.329c0,0 -42.304,-12.19 -55.188,-16.754c-12.885,-4.557 -33.244,0.19 -33.633,20.505c-0.389,20.315 14.326,53.377 54.564,72.14c40.239,18.757 88.432,25.685 88.432,25.685l-8.697,-6.488c0,0 78.257,3.38 111.42,-12.263c33.139,-15.632 33.239,-21.238 32.125,-31.179c-1.114,-9.935 -29.134,-17.417 -38.591,-21.171c-9.458,-3.751 -44.838,-10.097 -44.838,-10.097l0.366,-55.18l-4.08,3.335l-25.329,-34.584c0,0 16.237,-50.084 16.335,-51.012c0.098,-0.928 -2.873,-4.031 -2.873,-4.031l-46.305,-28.259l-9.479,-8.201l3.738,16.521l17.058,23.46l2.591,4.47l-51.477,30.65l14.627,45.453l5.724,3.614l-6.511,-0.417l-19.979,33.803Z" style="fill:#2d0b1e;fill-rule:nonzero;"/><path d="M289.737,222.802l-22.104,-43.013l-5.007,-44.865l-15.58,-21.835l21.986,-7.782l-32.681,-13.25l37.805,-41.142l-19.433,-24.097l-15.315,-21.494l-1.258,-0.257l3.306,14.731l17.078,23.467l1.706,2.915l3.06,0.838l-41.873,32.001l13.568,45.345l-2.186,16.03l-12.269,-8.363l-17.03,28.807c0,0 -42.307,-12.187 -55.191,-16.75c-5.678,-2.015 -12.831,-2.214 -19.056,-0.057c-32.301,57.781 95.296,87.855 95.296,87.855c0,0 -6.955,3.983 -21.812,5.928c65.493,0.31 86.99,-15.012 86.99,-15.012Z" style="fill:#1f0210;fill-rule:nonzero;"/><path d="M201.348,163.66c0,0 2.046,10.031 13.176,15.592c11.152,5.556 52.782,12.762 64.895,13.272c12.113,0.508 28.629,-10.244 28.629,-10.244l9.13,25.712c0,0 -24.124,23.564 -65.768,14.251c-41.643,-9.309 -54.489,-16.676 -63.25,-41.415c7.792,-12.323 13.188,-17.168 13.188,-17.168Z" style="fill:#18655d;fill-rule:nonzero;"/><path d="M214.576,169.427c-2.077,-0.206 -2.972,1.573 -2.972,1.573l-11.257,40.055c0,0 -0.506,2.759 0.563,3.801c1.068,1.043 54.552,13.646 56.47,13.133c1.939,-0.509 6.566,-49.181 6.566,-49.181l-49.37,-9.381Z" style="fill:#f4ef81;fill-rule:nonzero;"/><path d="M219.349,184.881c0.699,0.067 27.026,5.742 27.026,5.742l-3.239,20.732c0,0 -25.332,-3.936 -25.182,-5.561c0.171,-1.618 1.395,-20.913 1.395,-20.913Z" style="fill:#1f0210;fill-rule:nonzero;"/><path d="M279.419,192.524c-1.364,-0.063 -3.106,-0.204 -5.118,-0.421l-0.292,0.126l4.851,31.752c14.318,-1.512 24.931,-6.669 31.314,-10.725l-7.805,-27.703c-5.899,3.117 -15.293,7.289 -22.95,6.971Z" style="fill:#40867e;fill-rule:nonzero;"/><path d="M257.38,227.989c1.939,-0.509 6.566,-49.181 6.566,-49.181l-49.37,-9.381c-2.077,-0.206 -2.972,1.573 -2.972,1.573l44.337,12.404l-4.585,43.61c3.398,0.684 5.671,1.072 6.024,0.975Z" style="fill:#f8f7c7;fill-rule:nonzero;"/></g></g></svg>