<?xml version="1.0" encoding="UTF-8" standalone="no"?>
<!DOCTYPE svg PUBLIC "-//W3C//DTD SVG 1.1//EN" "http://www.w3.org/Graphics/SVG/1.1/DTD/svg11.dtd">
<svg width="100%" height="100%" viewBox="0 0 524 529" version="1.1" xmlns="http://www.w3.org/2000/svg" xmlns:xlink="http://www.w3.org/1999/xlink" xml:space="preserve" xmlns:serif="http://www.serif.com/" style="fill-rule:evenodd;clip-rule:evenodd;stroke-miterlimit:10;">
    <g transform="matrix(0.955107,0,0,0.963655,-83.1748,-120.639)">
        <g transform="matrix(6.02119,0,0,6.02119,-2929.41,-1909.97)">
            <rect x="500.979" y="337.999" width="91.096" height="91.096" style="fill:rgb(86,168,201);"/>
        </g>
        <g transform="matrix(6.02119,0,0,6.02119,-90.052,-34.2672)">
            <path d="M98.421,70.581C98.612,71.962 98.886,76.645 100.472,77.408C105.609,79.878 107.41,68.277 107.981,65.483C108.548,62.703 107.761,56.161 103.543,57.733C103.404,57.785 103.305,57.848 103.233,57.92C101.392,57.126 99.279,57.33 98.607,59.58C97.611,62.916 97.951,67.206 98.421,70.581Z" style="fill:rgb(216,183,139);fill-rule:nonzero;"/>
        </g>
        <g transform="matrix(6.02119,0,0,6.02119,-90.052,-34.2672)">
            <path d="M50.499,59.58C49.827,57.33 47.714,57.126 45.873,57.92C45.802,57.849 45.702,57.785 45.564,57.733C41.345,56.161 40.557,62.703 41.125,65.483C41.695,68.277 43.497,79.878 48.634,77.408C50.22,76.645 50.493,71.962 50.685,70.581C51.154,67.206 51.494,62.916 50.499,59.58Z" style="fill:rgb(216,183,139);fill-rule:nonzero;"/>
        </g>
        <g transform="matrix(6.02119,0,0,6.02119,-90.052,-34.2672)">
            <path d="M103.14,64.486C103.14,49.21 90.374,36.826 74.627,36.826C58.881,36.826 46.115,48.048 46.115,64.486C46.115,95.182 58.881,92.145 74.627,92.145C90.374,92.146 103.14,95.183 103.14,64.486Z" style="fill:rgb(127,81,46);fill-rule:nonzero;stroke:black;stroke-width:1px;"/>
        </g>
        <g transform="matrix(6.02119,0,0,6.02119,-90.052,-34.2672)">
            <path d="M51.143,74.014C51.143,88.212 61.702,99.722 74.726,99.722C87.748,99.722 98.307,88.212 98.307,74.014C98.307,59.815 98.182,41.864 74.623,47.453C47.939,41.863 51.143,59.814 51.143,74.014Z" style="fill:rgb(216,183,139);fill-rule:nonzero;stroke:black;stroke-width:1.2px;"/>
        </g>
        <g transform="matrix(6.02119,0,0,6.02119,-90.052,-34.2672)">
            <ellipse cx="63.182" cy="66.353" rx="6.671" ry="8.534" style="fill:white;stroke:black;stroke-width:1px;"/>
        </g>
        <g transform="matrix(6.02119,0,0,6.02119,-90.052,-34.2672)">
            <ellipse cx="86.182" cy="66.353" rx="6.671" ry="8.534" style="fill:white;stroke:black;stroke-width:1px;"/>
        </g>
        <g transform="matrix(6.02119,0,0,6.02119,-90.052,-34.2672)">
            <ellipse cx="63.62" cy="69.314" rx="2.692" ry="4.207"/>
        </g>
        <g transform="matrix(6.02119,0,0,6.02119,-90.052,-34.2672)">
            <ellipse cx="85.619" cy="69.314" rx="2.692" ry="4.207"/>
        </g>
        <g transform="matrix(6.02119,0,0,6.02119,-90.052,-34.2672)">
            <ellipse cx="74.626" cy="88.643" rx="29.221" ry="17.532" style="fill:rgb(216,183,139);stroke:black;stroke-width:1px;"/>
        </g>
        <g transform="matrix(6.02119,0,0,6.02119,-90.052,-34.2672)">
            <path d="M46.349,88.764C49.114,90.93 60.878,99.403 75.708,99.405L75.711,99.405C85.415,99.405 94.57,95.825 102.939,88.762C94.576,84.814 85.418,82.813 75.709,82.813C60.987,82.813 49.306,87.471 46.349,88.764Z" style="fill:white;fill-rule:nonzero;"/>
        </g>
        <g transform="matrix(6.02119,0,0,6.02119,-90.052,-34.2672)">
            <path d="M45.405,88.643C45.405,88.643 74.626,113.981 103.846,88.643C74.626,74.399 45.405,88.643 45.405,88.643" style="fill:none;stroke:black;stroke-width:1px;stroke-linejoin:bevel;"/>
        </g>
        <g transform="matrix(6.02119,0,0,6.02119,-90.052,-34.2672)">
            <path d="M45.405,88.643C45.405,88.643 74.623,95.61 103.841,88.643" style="fill:none;stroke:black;stroke-width:1px;"/>
        </g>
        <g transform="matrix(6.02119,0,0,6.02119,-90.052,-34.2672)">
            <path d="M51.298,86.343L51.298,93.051" style="fill:none;stroke:black;stroke-width:1px;"/>
        </g>
        <g transform="matrix(6.02119,0,0,6.02119,-90.052,-34.2672)">
            <path d="M59.073,84.418L59.073,96.107" style="fill:none;stroke:black;stroke-width:1px;"/>
        </g>
        <g transform="matrix(6.02119,0,0,6.02119,-90.052,-34.2672)">
            <path d="M66.31,83.055L66.31,98.519" style="fill:none;stroke:black;stroke-width:1px;"/>
        </g>
        <g transform="matrix(6.02119,0,0,6.02119,-90.052,-34.2672)">
            <path d="M98.307,86.343L98.307,93.051" style="fill:none;stroke:black;stroke-width:1px;"/>
        </g>
        <g transform="matrix(6.02119,0,0,6.02119,-90.052,-34.2672)">
            <path d="M90.53,83.951L90.53,97.06" style="fill:none;stroke:black;stroke-width:1.06px;"/>
        </g>
        <g transform="matrix(6.02119,0,0,6.02119,-90.052,-34.2672)">
            <path d="M83.294,83.055L83.294,99.195" style="fill:none;stroke:black;stroke-width:1.02px;"/>
        </g>
        <g transform="matrix(6.02119,0,0,6.02119,-90.052,-34.2672)">
            <path d="M74.623,82.322L74.623,99.904" style="fill:none;stroke:black;stroke-width:1px;"/>
        </g>
        <g transform="matrix(6.02119,0,0,6.02119,-90.052,-34.2672)">
            <path d="M47.025,76.876C47.021,76.877 46.554,76.984 45.896,76.581C44.872,75.954 43.452,74.169 42.497,69.185C41.937,67.104 41.645,65.419 41.543,64.056C41.522,63.783 41.509,63.523 41.503,63.276C41.441,60.798 42.072,59.544 42.766,58.911C43.87,57.903 45.489,58.135 46.239,58.319C46.489,58.38 46.643,58.436 46.649,58.438L47,57.501C46.879,57.456 44.027,56.414 42.099,58.166C40.417,59.693 40.064,62.796 41.035,67.378C41.173,68.03 41.338,68.712 41.528,69.424C42.343,73.675 43.638,76.37 45.376,77.434C45.982,77.805 46.51,77.888 46.86,77.888C47.109,77.888 47.27,77.846 47.306,77.835L47.025,76.876Z" style="fill-rule:nonzero;"/>
        </g>
        <g transform="matrix(6.02119,0,0,6.02119,-90.052,-34.2672)">
            <path d="M107.06,58.167C105.132,56.416 102.28,57.457 102.159,57.502L102.51,58.439C102.533,58.429 104.921,57.569 106.393,58.912C106.462,58.975 106.531,59.045 106.599,59.121C107.543,60.189 108.239,62.595 106.96,68.007C106.87,68.385 106.771,68.778 106.661,69.187C106.658,69.2 106.655,69.21 106.652,69.223C105.718,74.104 104.322,75.902 103.314,76.55C102.629,76.99 102.141,76.88 102.132,76.877L101.853,77.837C101.89,77.848 102.05,77.89 102.299,77.89C102.65,77.89 103.178,77.807 103.784,77.436C105.523,76.371 106.818,73.67 107.625,69.447C109.17,63.704 108.979,59.91 107.06,58.167Z" style="fill-rule:nonzero;"/>
        </g>
        <g transform="matrix(6.02119,0,0,6.02119,-90.052,-34.2672)">
            <path d="M93.43,57.751C93.404,58.314 92.895,57.302 92.546,56.98C91.954,56.434 91.131,55.992 90.303,55.598C88.213,54.606 85.685,54.231 83.32,54.181C82.832,54.171 82.728,51.125 83.804,51.148C89.033,51.256 94.775,53.48 94.606,57.112C94.583,57.624 94.559,58.576 93.928,58.917C93.456,59.174 93.426,57.815 93.43,57.751Z" style="fill-rule:nonzero;"/>
        </g>
        <g transform="matrix(6.02119,0,0,6.02119,-90.052,-34.2672)">
            <path d="M56.146,57.751C56.172,58.314 56.68,57.302 57.03,56.98C57.622,56.434 58.444,55.992 59.273,55.598C61.363,54.606 63.89,54.231 66.256,54.181C66.743,54.171 66.847,51.125 65.772,51.148C60.543,51.256 54.8,53.48 54.969,57.112C54.993,57.624 55.017,58.576 55.647,58.917C56.12,59.174 56.149,57.815 56.146,57.751Z" style="fill-rule:nonzero;"/>
        </g>
    </g>
</svg>
