<?xml version="1.0" encoding="UTF-8" standalone="no"?><!DOCTYPE svg PUBLIC "-//W3C//DTD SVG 1.1//EN" "http://www.w3.org/Graphics/SVG/1.1/DTD/svg11.dtd"><svg width="100%" height="100%" viewBox="0 0 524 529" version="1.1" xmlns="http://www.w3.org/2000/svg" xmlns:xlink="http://www.w3.org/1999/xlink" xml:space="preserve" xmlns:serif="http://www.serif.com/" style="fill-rule:evenodd;clip-rule:evenodd;stroke-linejoin:round;stroke-miterlimit:2;"><g><rect x="-0.004" y="-0.003" width="523.882" height="528.571" style="fill:#56a8c9;"/><path d="M502.129,99.941c-1.358,0 -5.665,-4.704 -14.62,-8.135c-8.953,-3.431 -18.361,1.27 -19.833,1.653c-1.474,0.381 -0.114,-0.89 0,-2.163c0.114,-1.268 8.612,-17.789 12.466,-23c3.854,-5.211 8.275,-6.609 14.054,-7.117c5.78,-0.508 10.376,4.548 10.313,7.244c-0.114,4.956 0.226,28.976 0,30.628c-0.226,1.651 -1.02,0.89 -2.38,0.89Zm-39.892,-8.261c-1.474,-0.764 -4.081,-9.661 -9.522,-16.523c-5.44,-6.861 -15.866,-8.26 -17.794,-8.641c-1.927,-0.382 -0.111,-0.763 1.474,-2.288c1.586,-1.524 9.294,-6.482 17.453,-12.326c8.16,-5.847 13.601,-4.576 19.946,0.126c6.348,4.702 5.59,8.846 4.762,11.819c-1.133,4.067 -11.787,23.257 -13.6,26.181c-1.815,2.922 -1.249,2.413 -2.719,1.652Zm-29.014,-50.454c-2.155,-11.056 -11.562,-18.808 -14.509,-20.969c-2.946,-2.16 -2.04,-1.779 -1.586,-2.54c0.454,-0.764 11.334,-3.432 23.346,1.268c12.015,4.704 15.528,12.075 16.436,19.573c0.906,7.497 -1.591,7.77 -5.215,10.929c-2.041,1.78 -16.546,11.438 -18.36,11.184c-1.813,-0.256 2.04,-8.388 -0.112,-19.445Zm60.52,-20.205c0.218,1.345 -4.306,3.431 -5.101,4.193c-0.793,0.762 -21.76,14.232 -23.236,15.124c-1.471,0.888 -3.623,4.319 -3.623,1.523c0,-2.796 -1.701,-11.691 -4.081,-15.757c-2.38,-4.067 -5.44,-5.338 -5.44,-6.608c0,-1.271 11.673,-0.383 16.434,-0.89c4.76,-0.509 24.819,1.016 25.047,2.415Zm2.833,7.369c0.906,0.764 -1.474,7.118 -2.606,9.278c-1.134,2.16 -7.141,12.582 -10.202,18.935c-3.058,6.356 -1.587,1.652 -2.607,-0.889c-1.019,-2.541 -7.026,-8.642 -8.952,-9.404c-1.928,-0.764 -1.928,-0.764 -1.928,-1.78c0,-1.016 15.189,-10.548 17.228,-11.818c2.039,-1.271 8.212,-5.041 9.067,-4.322Zm5.893,1.4c0.794,3.429 1.02,19.316 1.134,22.364c0.112,3.053 0.226,6.229 -0.34,6.229c-0.566,0 -3.515,-0.128 -7.141,-0.89c-3.625,-0.763 -8.047,1.398 -9.974,1.398c-1.926,0 -0.112,-0.888 0.455,-1.904c0.565,-1.019 3.174,-6.229 5.552,-10.424c2.38,-4.193 6.575,-12.833 8.048,-16.012c1.474,-3.177 2.123,-1.378 2.266,-0.761Zm7.595,148.561c0,-4.068 -1.248,-66.466 -1.248,-70.913c0,-4.449 -1.587,-63.034 -1.813,-67.483c-0.228,-4.447 -0.283,-14.486 -0.283,-14.486c0.226,-2.608 -0.567,-3.876 -0.567,-5.402c0,-1.525 0.34,-2.922 -0.795,-3.114c-1.131,-0.189 -3.909,-0.7 -4.701,-0.508c-0.794,0.191 -6.008,0.508 -6.179,0.508c-0.168,0 0.284,-0.063 -0.225,0.318c-0.51,0.383 -0.794,0.572 -1.304,0.064c-0.509,-0.509 -0.397,-0.571 -1.019,-0.571c-0.624,0 -18.021,-1.527 -18.758,-1.527c-0.736,0 -24.537,-0.762 -26.123,-0.952c-1.587,-0.191 -30.318,-1.144 -30.318,-1.144c0,0 -41.989,-1.652 -43.52,-1.716c-1.529,-0.064 -5.496,-0.7 -6.799,-0.762c-1.305,-0.063 -2.948,-0.637 -3.401,0.826c-0.454,1.463 -1.53,2.287 0.795,2.542c2.321,0.254 55.362,-2.796 64.316,23.128c5.553,16.268 1.134,24.147 -3.967,28.594c-5.1,4.449 -12.241,10.422 -13.94,11.31c-1.7,0.891 -7.253,4.83 -8.386,5.72c-1.133,0.889 -2.269,1.397 -1.133,2.289c1.133,0.889 2.039,0.889 3.513,0c1.474,-0.892 20.059,-15.253 29.806,-13.98c9.745,1.271 15.868,4.576 19.72,11.057c3.854,6.478 4.873,10.547 4.987,14.359c0.114,3.813 -7.367,16.267 -8.158,17.793c-0.795,1.525 -0.795,2.16 -0.568,2.796c0.225,0.635 1.019,2.286 2.38,0.761c1.359,-1.525 4.987,-8.896 6.798,-11.309c1.815,-2.416 9.747,-8.135 17.343,-8.516c7.593,-0.381 13.031,-1.525 19.491,4.195c6.461,5.717 8.049,5.465 8.841,9.912c0.795,4.447 1.474,21.349 1.474,28.847c0,7.499 0.452,33.424 0.68,34.947c0.226,1.525 1.247,3.94 1.587,4.83c0.339,0.89 1.474,1.653 1.474,-2.413Z" style="fill:#fff;fill-rule:nonzero;"/><g><path d="M241.625,157.086c-13.953,1.005 -25.354,2.267 -25.354,2.267l-3.16,3.081l-6.65,0.792c0,0 -46.648,12.832 -53.9,15.787c-7.255,2.951 -9.61,13.55 -9.61,13.55l-10.087,1.509c0,0 -33.273,24.173 -40.338,35.946c-7.066,11.774 -11.324,13.803 -11.404,20.258c-0.079,6.459 -9.991,46.057 -9.499,58.962c0.49,12.9 7.884,36.632 7.884,36.632l2.15,9.858c0,0 22.368,29.436 24.185,33.703c1.81,4.265 20.636,19.145 22.817,20.388c2.176,1.247 13.254,5.961 13.254,5.961l1.644,6.2c0,0 43.134,24.049 54.792,25.738c11.652,1.686 17.843,-0.818 17.843,-0.818l3.399,-2.218l7.651,5.645c0,0 15.831,5.682 25.078,5.271c9.247,-0.413 46.394,-4.434 67.542,-11.776c7.012,-4.454 8.373,-11.372 8.373,-11.372l2.813,1.018c0,0 39.509,-14.408 51.326,-25.641c9.889,-10.538 9.767,-16.347 9.767,-16.347l0.337,-4.309l4.278,-1.163c0,0 28.174,-21.061 36.329,-42.325c8.152,-21.267 7.17,-27.06 8.031,-27.076c0.854,-0.02 6.417,-11.972 6.476,-19.295c0.054,-7.315 -0.13,-36.157 -8.542,-46.957c-8.407,-10.792 -11.494,-14.171 -11.494,-14.171c0,0 -11.372,-18.477 -13.115,-19.521c-1.746,-1.036 -21.553,-21.488 -21.553,-21.488c0,0 -8.568,-7.776 -20.053,-11.624c-11.488,-3.848 -27.569,-10.817 -27.569,-10.817l-2.566,0.704l-8.347,-8.005c0,0 -32.773,-12.642 -92.728,-8.347Z" style="fill:#f15846;fill-rule:nonzero;"/><path d="M200.782,199.719c0.113,0 0.575,-0.175 1.248,-0.475c-0.948,0.294 -1.412,0.484 -1.248,0.475Z" style="fill:#18655d;fill-rule:nonzero;"/><path d="M293.884,426.728l0.207,-20.667l-13.919,-6.802c0,0 -52.939,20.503 -75.674,13.887c-22.744,-6.618 -59.945,-85.238 -61.541,-99.627c-1.599,-14.382 -12.487,-40.191 -5.914,-64.871c4.627,-25.279 53.414,-38.592 70.454,-26.691c6.76,-16.284 39.773,-2.145 39.773,-2.145c0,0 -0.049,-40.301 -0.357,-63.06c-1.743,0.096 -3.497,0.204 -5.288,0.334c-13.953,1.005 -25.354,2.267 -25.354,2.267l-3.16,3.081l-6.65,0.792c0,0 -46.648,12.832 -53.9,15.787c-7.255,2.951 -9.61,13.55 -9.61,13.55l-10.087,1.509c0,0 -33.273,24.173 -40.338,35.946c-7.066,11.774 -11.324,13.803 -11.404,20.258c-0.079,6.459 -9.991,46.057 -9.499,58.962c0.49,12.9 7.884,36.632 7.884,36.632l2.15,9.858c0,0 22.368,29.436 24.185,33.703c1.81,4.265 20.636,19.145 22.817,20.388c2.176,1.247 13.254,5.961 13.254,5.961l1.644,6.2c0,0 43.134,24.049 54.792,25.738c11.652,1.686 17.843,-0.818 17.843,-0.818l3.399,-2.218l7.651,5.645c0,0 15.831,5.682 25.078,5.271c9.247,-0.413 46.394,-4.434 67.542,-11.776c7.012,-4.454 8.373,-11.372 8.373,-11.372l2.813,1.018c0,0 39.509,-14.408 51.326,-25.641c9.889,-10.538 9.767,-16.347 9.767,-16.347l0.306,-3.893c-3.902,1.941 -20.351,10.248 -41.439,23.069c-24.219,14.722 -57.124,16.072 -57.124,16.072Z" style="fill:#bc5243;fill-rule:nonzero;"/><path d="M159.524,273.133c0,0 1.658,47.322 28.409,70.42c50.194,-7.963 64.09,-22.685 64.09,-22.685l-92.499,-47.735Z" style="fill:#bc5243;fill-rule:nonzero;"/><path d="M287.367,313.231c27.037,26.323 55.873,26.134 55.873,26.134c0,0 37.815,-43.423 38.347,-78.948c-50.822,38.754 -94.22,52.814 -94.22,52.814Z" style="fill:#bc5243;fill-rule:nonzero;"/><path d="M215.525,160.114l-2.465,2.399l-5.69,0.674c-5.357,46.543 -12.934,184.768 3.545,284.904c3.41,-0.401 5.224,-1.109 5.224,-1.109l2.201,-1.437c-16.655,-102.55 -8.093,-244.632 -2.815,-285.431Z" style="fill:#a14c41;fill-rule:nonzero;"/><path d="M145.713,187.682l-0.979,-0.192c-1.307,2.798 -1.839,5.158 -1.839,5.158l-6.058,0.903c-5.566,35.472 -13.135,127.928 -2.524,219.029c3.638,1.613 7.549,3.28 7.549,3.28l1.248,4.717c-13.042,-100.153 -3.031,-204.231 2.603,-232.895Z" style="fill:#a14c41;fill-rule:nonzero;"/><path d="M96.108,228.318l-1.975,-0.617c-0.648,0.841 -1.209,1.647 -1.656,2.397c-2.654,4.411 -4.903,7.453 -6.692,9.875c-4.187,27.181 -6.527,77.847 -3.752,116.406c1.203,1.576 4.799,6.338 8.871,11.822c-5.056,-45.115 -0.99,-120.144 5.204,-139.883Z" style="fill:#a14c41;fill-rule:nonzero;"/><path d="M276.629,156.464c17.798,65.536 37.008,222.139 44.453,286.563c4.244,-3.184 6.044,-7.196 6.729,-9.214c-7.957,-67.952 -26.018,-212.094 -43.055,-276.956c-2.615,-0.161 -5.32,-0.297 -8.127,-0.393Z" style="fill:#a14c41;fill-rule:nonzero;"/><path d="M345.221,172.816l-2.572,0.701l-1.236,-1.188c18.199,60.397 39.43,163.725 46.832,228.234c3.89,-5.846 3.842,-9.001 3.842,-9.001l0.337,-4.307l1.916,-0.532c-8.339,-63.272 -27.272,-154.469 -44.062,-211.76c-3.065,-1.284 -5.057,-2.147 -5.057,-2.147Z" style="fill:#a14c41;fill-rule:nonzero;"/><path d="M414.387,216.748c-0.82,-0.49 -5.665,-5.3 -10.54,-10.24l-0.747,0.348c19.346,41.374 30.899,107.685 32.441,122.755l2.417,-0.252c2.804,-9.612 2.481,-12.653 3.109,-12.668c0.085,0 0.235,-0.152 0.411,-0.399c-3.583,-22.028 -12.02,-63.136 -24.547,-96.395c-1.188,-1.689 -2.136,-2.906 -2.544,-3.149Z" style="fill:#a14c41;fill-rule:nonzero;"/><path d="M252.023,320.868c2.278,-1.039 -59.166,-38.98 -92.499,-47.735c11.055,33.774 32.501,60.431 32.501,60.431c0,0 47.63,-7.048 59.998,-12.696Z" style="fill:#1f0210;fill-rule:nonzero;"/><path d="M287.367,313.231c0.637,-0.014 50.483,15.704 51.986,15.461c1.502,-0.252 36.767,-52.234 42.234,-68.275c-22.416,8.655 -93.006,49.339 -93.006,49.339l-1.214,3.475Z" style="fill:#1f0210;fill-rule:nonzero;"/><path d="M267.705,330.007l11.196,29.889l-33.117,1.579l21.921,-31.468Z" style="fill:#1f0210;fill-rule:nonzero;"/><path d="M142.957,313.519c7.742,17.682 24.499,48.553 58.326,60.092c-1.236,12.946 -4.414,25.492 -4.414,25.492c0,0 4.643,5.713 5.289,5.696c0.648,-0.011 17.121,5.447 34.509,3.353c5.778,-1.63 6.387,-3.362 6.565,-5.085c0.175,-1.732 -1.146,-23.437 -1.146,-23.437c0,0 91.46,9.227 148.233,-52.896c-7.818,26.855 -21.474,62.448 -63.383,85.518c-0.625,-19.363 -1.378,-24.3 -1.378,-24.3l-1.321,-1.475l-43.032,10.608c0,0 -0.643,0.657 -1.033,2.174c-0.402,1.516 3.517,23.386 3.517,23.386c0,0 -130.381,32.498 -140.732,-109.126Z" style="fill:#1f0210;fill-rule:nonzero;"/><path d="M306.81,186.038c-0.654,-10.744 9.06,-19.345 22.548,-22.435c-21.369,-2.983 -54.715,-22.716 -72.793,-42.56c-18.078,-19.847 -44.937,-27.877 -44.937,-27.877l-2.962,0.577c3.155,2.479 7.342,6.37 7.26,9.227c-0.113,4.313 -2.988,11.044 -2.988,11.044l-6.092,7.018l-8.056,2.815c0.402,0.249 0.804,0.504 1.24,0.775c9.601,5.815 18.896,17.671 25.022,32.388c6.126,14.725 -11.449,18.327 -11.449,18.327c0,0 0.88,0.628 4.262,7.875c2.931,6.284 -11.415,14.065 -15.835,16.032c4.046,-1.231 17.048,-4.301 29.479,-2.117c15.336,2.683 15.761,22.685 15.761,22.685c0,0 8.715,-15.251 24.444,-24.408c15.73,-9.165 42.286,4.474 42.286,4.474c0,0 -6.531,-3.09 -7.19,-13.84Z" style="fill:#18655d;fill-rule:nonzero;"/><path d="M212.938,114.014c0,0 2.875,-6.731 2.988,-11.044c0.082,-2.857 -4.105,-6.748 -7.26,-9.227l-9.462,1.837l-10.711,12.498l1.908,8.78c0,0 0.056,1.774 8.389,6.989l8.056,-2.815l6.092,-7.018Z" style="fill:#024a45;fill-rule:nonzero;"/><path d="M261.955,202.071c-0.498,0.011 -1.002,-0.122 -1.443,-0.41c-1.203,-0.77 -1.548,-2.36 -0.784,-3.566c0.088,-0.136 8.817,-14.21 3.605,-32.339c-5.189,-18.025 -21.841,-33.867 -49.52,-47.096c-1.288,-0.608 -1.834,-2.15 -1.22,-3.435c0.617,-1.287 2.159,-1.836 3.447,-1.216c29.124,13.907 46.713,30.873 52.287,50.428c5.812,20.399 -3.84,35.792 -4.255,36.443c-0.481,0.752 -1.285,1.171 -2.117,1.191Z" style="fill:#024a45;fill-rule:nonzero;"/></g></g></svg>