<?xml version="1.0" encoding="UTF-8" standalone="no"?>
<!DOCTYPE svg PUBLIC "-//W3C//DTD SVG 1.1//EN" "http://www.w3.org/Graphics/SVG/1.1/DTD/svg11.dtd">
<svg width="100%" height="100%" viewBox="0 0 1313 1322" version="1.1" xmlns="http://www.w3.org/2000/svg" xmlns:xlink="http://www.w3.org/1999/xlink" xml:space="preserve" xmlns:serif="http://www.serif.com/" style="fill-rule:evenodd;clip-rule:evenodd;stroke-linecap:round;stroke-linejoin:round;stroke-miterlimit:1.5;">
    <g transform="matrix(10.5991,0,0,11.0207,40.9655,40.0602)">
        <rect x="-3.865" y="-3.635" width="123.867" height="119.942" style="fill:rgb(177,114,188);"/>
    </g>
    <g transform="matrix(11.5702,0,0,11.5702,17.9826,15.1926)">
        <path d="M54.794,108.11L34.151,107.377L32.54,106.193L32.122,103.74L31.944,86.733L34.392,79.149L40.488,71.463L49.552,67.262L56.688,66.384L63.974,68.288L70.107,72.085L74.127,76.087L76.965,80.929L78.218,87.654L78.218,94.433L78.104,100.774L78.043,104.673L77.17,106.651L75.199,107.479L54.794,108.11Z" style="fill:white;"/>
    </g>
    <g transform="matrix(10.7479,0,0,10.7479,41.54,43.0584)">
        <path d="M41.294,56.18L45.479,60.069L52.78,63.427L60.997,63.218L68.591,60.474L74.416,54.344L80.051,40.882L62.231,9.969L41.409,14.534L34.033,35.479L32.99,55.451L41.294,56.18Z" style="fill:white;stroke:black;stroke-width:1px;"/>
    </g>
    <g transform="matrix(11.5702,0,0,11.5702,17.9826,15.1926)">
        <path d="M39.276,52.791L35.195,58.212L28.085,58.67L22.041,50.043L20.744,42.703L23.506,38.219L23.593,33.497L25.982,30.197L25.685,26.615L27.984,21.944L28.428,18.163L30.743,14.473L34.668,13.478L36.735,10.661L41.405,8.804L45.105,5.815L49.69,5.891L52.15,7.029L56.111,4.582L60.137,4.88L63.107,7.7L64.513,10.119L69.362,8.992L74.142,11.424L75.789,16.48L79.917,17.728L83.375,21.478L83.406,25.752L87.275,27.61L88.924,32.288L87.62,38.23L88.576,41.78L90.186,44.753L89.566,50.554L86.64,53.627L83.787,56.836L78.63,56.451L74.205,52.361L72.447,50.592L73.734,42.905L71.426,35.847L66.02,29.493L60.936,24.765L53.594,24.463L49.121,26.882L45.722,28.816L42.254,31.067L40.208,36.259L37.717,40.423L37.219,45.959L39.276,52.791Z" style="fill:white;"/>
    </g>
    <g transform="matrix(11.5702,0,0,11.5702,17.9826,15.1926)">
        <path d="M55.179,47.495L50.194,48.393L45.33,50.481L43.399,51.371L45.791,54.03L51.802,53.959L54.839,52.169L58.381,53.983L63.408,53.881L66.839,52.116L60.675,48.727L55.179,47.495Z" style="fill:white;"/>
    </g>
    <g transform="matrix(11.5702,0,0,11.5702,17.9826,15.1926)">
        <path d="M54.827,99.051L48.991,94.269L50.656,86.326L52.619,77.17L50.364,76.139L49.736,73.618L51.372,72.146L59.258,72.229L60.78,74.184L60.24,76.048L57.845,76.839L58.971,85.937L60.434,91.238L60.095,94.642L54.827,99.051Z" style="fill:white;"/>
    </g>
    <g transform="matrix(5.37512,0,0,5.37512,-8723.64,-1512.06)">
        <path d="M1670.99,389.056C1671.09,389.22 1671.15,389.408 1671.16,389.602C1671.37,394.052 1673.27,398.191 1676.51,401.261C1676.65,401.389 1676.75,401.55 1676.81,401.728C1679.12,408.819 1685.69,413.583 1693.16,413.583C1700.16,413.583 1706.4,409.399 1709.06,402.925C1709.07,402.916 1709.07,402.906 1709.08,402.897C1709.09,402.852 1709.11,402.819 1709.12,402.786C1709.27,402.421 1709.61,402.163 1710,402.108C1710.05,402.101 1710.1,402.098 1710.16,402.098C1710.49,402.098 1710.82,402.25 1711.03,402.518C1713.95,406.155 1717.42,409.28 1721.33,411.804C1728.27,416.283 1736.32,418.651 1744.61,418.651C1760.03,418.651 1774.37,410.298 1782.04,396.85C1782.26,396.457 1782.7,396.236 1783.15,396.29C1783.59,396.344 1783.97,396.66 1784.09,397.095C1786.2,404.415 1793,409.528 1800.62,409.528C1807.46,409.528 1813.65,405.476 1816.39,399.203C1816.46,399.024 1816.59,398.869 1816.74,398.753C1821.13,395.474 1823.65,390.453 1823.65,384.979C1823.65,380.279 1821.69,375.73 1818.28,372.497C1818.14,372.369 1818.04,372.209 1817.98,372.031C1817.78,371.422 1817.54,370.817 1817.28,370.235C1817.17,369.997 1817.15,369.727 1817.22,369.474C1817.61,368.009 1817.82,366.489 1817.82,364.957C1817.82,364.24 1817.77,363.516 1817.68,362.803C1817.65,362.561 1817.7,362.315 1817.82,362.104C1819.31,359.515 1820.1,356.557 1820.1,353.552C1820.1,346.617 1815.77,340.206 1809.33,337.599C1808.88,337.414 1808.59,336.955 1808.63,336.465C1808.67,335.997 1808.69,335.521 1808.69,335.051C1808.69,326.142 1802.01,318.781 1793.15,317.93C1792.62,317.879 1792.19,317.454 1792.14,316.919C1791.29,308.059 1783.93,301.377 1775.02,301.377C1772.52,301.377 1770.01,301.936 1767.75,302.992C1767.47,303.121 1767.16,303.133 1766.87,303.024C1766.59,302.916 1766.36,302.697 1766.24,302.419C1763.52,296.09 1757.31,292 1750.44,292C1746.16,292 1742.07,293.567 1738.93,296.414C1738.56,296.748 1738.01,296.799 1737.59,296.54C1734.9,294.896 1731.8,294.027 1728.64,294.027C1723.23,294.027 1718.06,296.631 1714.82,300.99C1714.63,301.248 1714.34,301.411 1714.02,301.439C1708.26,301.932 1702.99,305.412 1700.27,310.521C1700.09,310.849 1699.77,311.068 1699.4,311.108C1690.66,312.059 1684.07,319.409 1684.07,328.208C1684.07,328.882 1684.11,329.565 1684.19,330.241C1684.23,330.578 1684.12,330.916 1683.88,331.158C1680.73,334.383 1679,338.646 1679,343.161C1679,344.666 1679.19,346.156 1679.58,347.589C1679.68,347.979 1679.57,348.396 1679.28,348.679C1675.99,351.913 1674.18,356.254 1674.18,360.901C1674.18,362.496 1674.4,364.071 1674.83,365.582C1674.95,366.009 1674.81,366.466 1674.47,366.75C1670.58,370.006 1668.35,374.803 1668.35,379.909C1668.35,383.158 1669.27,386.321 1670.99,389.056ZM1744.61,414.157C1729.97,414.157 1716.36,405.634 1709.93,392.44C1709.89,392.37 1709.86,392.296 1709.85,392.22C1709.45,390.646 1708.84,389.141 1708.03,387.746C1707.99,387.678 1707.96,387.604 1707.94,387.529C1707.9,387.411 1707.86,387.291 1707.82,387.17C1707.75,386.952 1707.75,386.719 1707.82,386.501C1708.33,384.862 1708.58,383.156 1708.58,381.431C1708.58,379.534 1708.27,377.65 1707.64,375.831C1707.44,375.252 1707.74,374.62 1708.32,374.41C1709.02,374.155 1709.54,373.574 1709.73,372.857C1710.15,371.222 1710.36,369.538 1710.36,367.851C1710.36,367.675 1710.36,367.497 1710.35,367.318C1710.34,366.969 1710.5,366.634 1710.77,366.414C1714.46,363.429 1716.93,358.882 1717.55,353.938C1717.61,353.497 1717.92,353.131 1718.34,353.002C1721.89,351.93 1724.96,349.692 1727.24,346.532C1727.42,346.277 1727.7,346.11 1728.02,346.073C1732.54,345.531 1736.6,343.122 1739.46,339.291C1739.82,338.813 1740.49,338.697 1740.98,339.026C1743.67,340.803 1746.76,341.742 1749.93,341.742C1752.03,341.742 1754.09,341.334 1756.05,340.527C1756.55,340.318 1757.14,340.508 1757.43,340.977C1759.62,344.527 1762.9,347.172 1766.66,348.422C1767.01,348.54 1767.29,348.83 1767.39,349.194C1768.84,354.556 1772.55,359.035 1777.32,361.177C1777.65,361.326 1777.89,361.628 1777.96,361.986C1778.6,365.287 1780.07,368.342 1782.19,370.82C1782.33,370.973 1782.41,371.158 1782.45,371.356C1782.54,371.86 1782.62,372.379 1782.69,372.896C1782.74,373.185 1782.83,373.46 1782.98,373.716C1783.08,373.877 1783.13,374.06 1783.14,374.246C1783.15,374.709 1783.16,375.165 1783.16,375.601C1783.16,396.861 1765.87,414.157 1744.61,414.157ZM1678.96,369.048C1679.93,368.455 1680.31,367.228 1679.83,366.191C1679.07,364.522 1678.68,362.742 1678.68,360.901C1678.68,356.871 1680.53,353.167 1683.76,350.74C1684.58,350.12 1684.88,349.024 1684.48,348.073C1683.83,346.517 1683.49,344.863 1683.49,343.161C1683.49,339.347 1685.19,335.769 1688.13,333.343C1688.8,332.796 1689.09,331.936 1688.9,331.098C1688.67,330.144 1688.56,329.172 1688.56,328.208C1688.56,321.202 1694.26,315.503 1701.27,315.503C1701.28,315.503 1701.3,315.503 1701.31,315.504C1701.36,315.506 1701.41,315.507 1701.46,315.508C1702.39,315.502 1703.25,314.935 1703.58,314.06C1705.45,309.162 1710.22,305.871 1715.46,305.871L1715.73,305.879C1716.52,305.896 1717.28,305.472 1717.7,304.775C1719.97,300.918 1724.17,298.521 1728.64,298.521C1731.76,298.521 1734.77,299.668 1737.1,301.749C1737.56,302.164 1738.18,302.368 1738.8,302.312C1739.42,302.254 1739.99,301.938 1740.37,301.446C1742.8,298.3 1746.47,296.494 1750.44,296.494C1756.8,296.494 1762.21,301.245 1763.03,307.545C1763.14,308.365 1763.68,309.059 1764.46,309.354C1765.23,309.649 1766.1,309.497 1766.73,308.956C1769.03,306.967 1771.98,305.871 1775.02,305.871C1782.02,305.871 1787.72,311.571 1787.72,318.577C1787.72,319.023 1787.7,319.484 1787.65,319.946C1787.58,320.625 1787.81,321.292 1788.3,321.774C1788.78,322.257 1789.44,322.492 1790.12,322.42C1790.58,322.37 1791.05,322.345 1791.49,322.345C1798.5,322.345 1804.2,328.045 1804.2,335.051C1804.2,336.157 1804.05,337.261 1803.77,338.331C1803.61,338.926 1803.7,339.566 1804.03,340.091C1804.35,340.614 1804.88,340.985 1805.48,341.11C1811.35,342.322 1815.6,347.555 1815.6,353.552C1815.6,356.112 1814.84,358.58 1813.41,360.689C1813.07,361.188 1812.94,361.812 1813.07,362.402C1813.24,363.237 1813.32,364.097 1813.32,364.957C1813.32,366.448 1813.07,367.908 1812.56,369.297C1812.34,369.913 1812.39,370.594 1812.71,371.165C1813.24,372.102 1813.64,373.099 1813.92,374.127C1814.03,374.575 1814.28,374.971 1814.64,375.271C1817.51,377.693 1819.15,381.232 1819.15,384.979C1819.15,389.262 1817.01,393.23 1813.42,395.594C1813.02,395.86 1812.72,396.242 1812.55,396.697C1810.73,401.684 1805.93,405.034 1800.62,405.034C1794.63,405.034 1789.4,400.789 1788.18,394.941C1787.97,393.95 1787.12,393.216 1786.11,393.157C1785.99,393.15 1785.86,393.155 1785.73,393.171C1785.34,393.215 1784.95,393.051 1784.71,392.735C1784.47,392.421 1784.41,392.002 1784.56,391.635C1786.61,386.529 1787.66,381.136 1787.66,375.601C1787.66,374.628 1787.62,373.639 1787.56,372.659C1787.53,372.252 1787.39,371.857 1787.15,371.519C1787.05,371.38 1786.98,371.221 1786.95,371.054C1786.87,370.571 1786.79,370.095 1786.7,369.631L1786.68,369.535C1786.59,369.123 1786.39,368.746 1786.1,368.443C1783.86,366.097 1782.45,362.939 1782.15,359.551C1782.06,358.634 1781.44,357.868 1780.56,357.602C1775.83,356.172 1772.23,351.777 1771.38,346.406C1771.23,345.471 1770.51,344.725 1769.58,344.548C1765.42,343.759 1761.89,340.722 1760.15,336.424C1759.91,335.846 1759.44,335.388 1758.86,335.167C1758.86,335.167 1758.85,335.166 1758.85,335.165L1758.49,335.027C1757.81,334.765 1757.04,334.849 1756.43,335.253C1754.47,336.559 1752.22,337.248 1749.93,337.248C1746.74,337.248 1743.69,335.923 1741.34,333.518C1740.9,333.07 1740.29,332.823 1739.67,332.843C1739.61,332.844 1739.54,332.849 1739.48,332.855C1739.32,332.873 1739.17,332.895 1739.01,332.919L1738.95,332.929C1738.25,333.058 1737.64,333.522 1737.33,334.171C1735.14,338.762 1730.88,341.644 1726.23,341.692C1725.44,341.7 1724.71,342.124 1724.31,342.798C1722.24,346.32 1718.9,348.618 1715.17,349.102C1714.04,349.248 1713.2,350.213 1713.21,351.348L1713.21,351.486C1713.2,356.546 1710.73,361.249 1706.77,363.76C1706.04,364.222 1705.64,365.073 1705.74,365.93C1705.82,366.585 1705.86,367.231 1705.86,367.851C1705.86,368.413 1705.83,369.007 1705.76,369.618C1705.71,370.012 1705.47,370.352 1705.11,370.515C1704.68,370.706 1704.33,371.018 1704.1,371.416C1703.75,372.007 1703.35,372.569 1702.92,373.087C1702.34,373.786 1702.23,374.759 1702.65,375.565C1703.61,377.392 1704.09,379.364 1704.09,381.431C1704.09,382.985 1703.81,384.51 1703.25,385.96C1703.1,386.372 1703.07,386.817 1703.16,387.248L1703.19,387.377C1703.39,388.062 1703.59,388.706 1703.79,389.296C1703.82,389.402 1703.86,389.501 1703.91,389.597C1703.94,389.653 1703.97,389.71 1704,389.765C1704.72,390.938 1705.24,392.219 1705.55,393.572C1705.58,393.73 1705.62,393.846 1705.68,393.973L1705.72,394.066C1706.35,395.391 1707.06,396.704 1707.83,397.968C1708.04,398.305 1708.05,398.727 1707.87,399.076C1707.68,399.426 1707.33,399.653 1706.93,399.675C1706.9,399.677 1706.86,399.677 1706.82,399.678C1705.98,399.764 1705.27,400.302 1704.96,401.08C1703.03,405.945 1698.39,409.089 1693.16,409.089C1687.39,409.089 1682.34,405.2 1680.87,399.632C1680.75,399.183 1680.5,398.787 1680.15,398.488C1677.29,396.068 1675.64,392.536 1675.64,388.796L1675.64,388.628C1675.65,388.148 1675.5,387.688 1675.22,387.297C1673.67,385.131 1672.85,382.576 1672.85,379.909C1672.85,375.438 1675.13,371.377 1678.96,369.048Z" style="fill-rule:nonzero;"/>
    </g>
    <g transform="matrix(5.37512,0,0,5.37512,-8723.64,-1512.06)">
        <path d="M1772.5,394.135L1761.54,388.448C1758.51,386.878 1755.35,385.753 1752.15,385.106C1749.15,384.499 1746.09,384.215 1743.06,384.252C1742.8,384.255 1742.54,384.261 1742.28,384.269C1739.36,384.357 1736.41,384.809 1733.52,385.611C1733.11,385.726 1732.68,385.595 1732.41,385.305C1732.34,385.699 1732.06,386.043 1731.66,386.178C1728.89,387.1 1726.22,388.34 1723.71,389.865L1716.57,394.21C1715.95,394.592 1715.54,395.257 1715.5,395.99C1715.45,396.723 1715.77,397.433 1716.34,397.89C1719.41,400.323 1722.99,401.97 1726.71,402.648C1733.88,403.957 1739.83,401.579 1743.56,399.354C1743.73,399.248 1743.93,399.195 1744.13,399.195C1744.37,399.195 1744.6,399.27 1744.8,399.415C1746.72,400.829 1748.81,401.896 1751.04,402.585C1752.98,403.188 1755.01,403.494 1757.08,403.494C1765.13,403.494 1771.62,398.847 1772.83,397.915C1773.45,397.445 1773.78,396.705 1773.71,395.934C1773.64,395.163 1773.19,394.49 1772.5,394.135ZM1764.9,397.328C1762.28,398.439 1759.65,398.999 1757.12,398.999C1755.48,398.999 1753.89,398.764 1752.37,398.292C1750,397.557 1747.82,396.275 1745.88,394.481C1745.46,394.095 1744.92,393.883 1744.35,393.883C1743.87,393.883 1743.4,394.036 1743.01,394.326C1741.55,395.41 1736.83,398.516 1730.72,398.517C1729.69,398.517 1728.62,398.429 1727.52,398.228C1726.28,398 1725.04,397.635 1723.84,397.141C1723.45,396.979 1723.18,396.611 1723.15,396.189C1723.12,395.768 1723.32,395.362 1723.69,395.143L1726.05,393.704C1731.08,390.643 1736.74,388.933 1742.42,388.761C1742.65,388.754 1742.88,388.749 1743.11,388.746C1745.85,388.711 1748.59,388.972 1751.26,389.512C1754.05,390.075 1756.81,391.061 1759.47,392.438L1764.98,395.298C1765.37,395.499 1765.6,395.904 1765.59,396.339C1765.57,396.773 1765.3,397.159 1764.9,397.328Z" style="fill-rule:nonzero;"/>
    </g>
    <g transform="matrix(5.37512,0,0,5.37512,-8723.64,-1512.06)">
        <path d="M1732.11,384.336C1732.18,383.961 1732.43,383.63 1732.81,383.482C1737.34,381.713 1740.38,377.266 1740.38,372.416C1740.38,365.866 1735.05,360.538 1728.5,360.538C1721.96,360.538 1716.63,365.866 1716.63,372.416C1716.63,378.966 1721.96,384.294 1728.5,384.294C1729.36,384.294 1730.21,384.2 1731.06,384.014C1731.14,383.996 1731.22,383.987 1731.3,383.987C1731.61,383.987 1731.9,384.117 1732.11,384.336ZM1728.5,379.8C1724.43,379.8 1721.12,376.487 1721.12,372.416C1721.12,368.345 1724.43,365.032 1728.5,365.032C1732.58,365.032 1735.89,368.345 1735.89,372.416C1735.89,376.487 1732.58,379.8 1728.5,379.8Z" style="fill-rule:nonzero;"/>
    </g>
    <g transform="matrix(5.37512,0,0,5.37512,-8723.64,-1512.06)">
        <path d="M1724.33,467.202L1708.11,467.202C1707.73,467.202 1707.38,467.35 1707.11,467.616C1706.85,467.883 1706.7,468.236 1706.7,468.613C1706.7,469.392 1707.33,470.024 1708.11,470.024L1724.33,470.024C1724.71,470.024 1725.06,469.877 1725.33,469.61C1725.59,469.344 1725.74,468.99 1725.74,468.613C1725.74,467.835 1725.11,467.202 1724.33,467.202Z" style="fill-rule:nonzero;"/>
    </g>
    <g transform="matrix(5.37512,0,0,5.37512,-8723.64,-1512.06)">
        <path d="M1765.5,468.613C1765.5,469.392 1766.13,470.024 1766.91,470.024L1783.13,470.024C1783.5,470.024 1783.86,469.877 1784.13,469.61C1784.39,469.344 1784.54,468.99 1784.54,468.613C1784.54,467.835 1783.91,467.202 1783.13,467.202L1766.91,467.202C1766.53,467.202 1766.18,467.35 1765.91,467.616C1765.64,467.883 1765.5,468.236 1765.5,468.613Z" style="fill-rule:nonzero;"/>
    </g>
    <g transform="matrix(5.37512,0,0,5.37512,-8723.64,-1512.06)">
        <path d="M1751.58,437.221L1738.4,437.221C1736.41,437.221 1734.54,437.997 1733.13,439.407C1731.73,440.813 1730.95,442.681 1730.95,444.663C1730.95,447.95 1733.16,450.89 1736.32,451.811C1736.9,451.979 1737.24,452.576 1737.09,453.161L1729.7,482.727C1728.92,485.849 1729.83,489.215 1732.09,491.514L1737.54,497.074C1739.31,498.871 1741.67,499.861 1744.2,499.861C1746.65,499.861 1748.97,498.917 1750.72,497.201L1756.12,491.904C1758.38,489.692 1759.35,486.523 1758.73,483.427L1752.68,453.164C1752.56,452.582 1752.92,452.01 1753.49,451.857C1754.75,451.525 1755.91,450.854 1756.85,449.919C1758.25,448.513 1759.02,446.646 1759.02,444.663C1759.02,440.56 1755.68,437.221 1751.58,437.221ZM1753.67,446.74C1753.34,447.068 1752.64,447.611 1751.58,447.611L1749.73,447.611C1749.05,447.611 1748.42,447.911 1747.99,448.434C1747.56,448.957 1747.39,449.637 1747.52,450.3L1754.32,484.309C1754.64,485.911 1754.14,487.551 1752.97,488.695L1747.57,493.992C1746.67,494.882 1745.47,495.37 1744.2,495.37L1744.15,495.37C1742.86,495.357 1741.65,494.845 1740.75,493.926L1735.3,488.366C1734.13,487.177 1733.66,485.435 1734.06,483.818L1742.41,450.404C1742.58,449.728 1742.43,449.025 1742,448.476C1741.58,447.927 1740.93,447.611 1740.23,447.611L1738.4,447.611C1736.77,447.611 1735.45,446.289 1735.45,444.663C1735.45,443.563 1736.05,442.844 1736.3,442.586C1736.63,442.258 1737.34,441.715 1738.4,441.715L1751.58,441.715C1753.2,441.715 1754.52,443.038 1754.52,444.663C1754.52,445.763 1753.93,446.482 1753.67,446.74Z" style="fill-rule:nonzero;"/>
    </g>
    <g transform="matrix(5.37512,0,0,5.37512,-8723.64,-1512.06)">
        <path d="M1744.73,424.802C1715.89,424.802 1692.43,448.265 1692.43,477.104L1692.43,508.34C1692.43,513.667 1696.76,518 1702.09,518L1787.37,518C1792.7,518 1797.03,513.667 1797.03,508.34L1797.03,477.104C1797.03,463.132 1791.59,449.997 1781.72,440.119C1771.84,430.242 1758.71,424.802 1744.73,424.802ZM1792.54,508.34C1792.54,511.188 1790.22,513.506 1787.37,513.506L1702.09,513.506C1699.24,513.506 1696.93,511.188 1696.93,508.34L1696.93,477.104C1696.93,450.742 1718.37,429.296 1744.73,429.296C1757.5,429.296 1769.51,434.269 1778.54,443.297C1787.57,452.325 1792.54,464.332 1792.54,477.104L1792.54,508.34Z" style="fill-rule:nonzero;"/>
    </g>
    <g transform="matrix(5.37512,0,0,5.37512,-8723.64,-1512.06)">
        <path d="M1752.58,372.416C1752.58,378.966 1757.91,384.294 1764.46,384.294C1771.01,384.294 1776.34,378.966 1776.34,372.416C1776.34,365.866 1771.01,360.538 1764.46,360.538C1757.91,360.538 1752.58,365.866 1752.58,372.416ZM1771.84,372.416C1771.84,376.487 1768.53,379.8 1764.46,379.8C1760.39,379.8 1757.08,376.487 1757.08,372.416C1757.08,368.345 1760.39,365.032 1764.46,365.032C1768.53,365.032 1771.84,368.345 1771.84,372.416Z" style="fill-rule:nonzero;"/>
    </g>
</svg>
