<?xml version="1.0" encoding="UTF-8" standalone="no"?>
<!DOCTYPE svg PUBLIC "-//W3C//DTD SVG 1.1//EN" "http://www.w3.org/Graphics/SVG/1.1/DTD/svg11.dtd">
<svg width="100%" height="100%" viewBox="0 0 524 529" version="1.1" xmlns="http://www.w3.org/2000/svg" xmlns:xlink="http://www.w3.org/1999/xlink" xml:space="preserve" xmlns:serif="http://www.serif.com/" style="fill-rule:evenodd;clip-rule:evenodd;stroke-linecap:round;stroke-linejoin:round;stroke-miterlimit:1.5;">
    <g transform="matrix(5.75088,0,0,5.80235,-2881.07,-1961.19)">
        <rect x="500.979" y="337.999" width="91.096" height="91.096" style="fill:rgb(160,160,160);"/>
    </g>
    <g id="Krokodil-grosse-Augen" transform="matrix(0.75093,0,0,0.75765,-58.4462,-2181.99)">
        <g transform="matrix(1,0,0,1,-818.17,165.118)">
            <clipPath id="_clip1">
                <rect x="981.194" y="2810.39" width="269.289" height="406.571"/>
            </clipPath>
            <g clip-path="url(#_clip1)">
                <path d="M1159.76,3206.86C1159.76,3206.86 1041.53,3164.89 1022.02,3139.86C1002.51,3114.83 984.489,3068.82 1021.7,3025.28C1058.91,2981.75 1054.96,2986.01 1054.96,2986.01C1054.96,2986.01 1013.55,2936.64 1045.16,2885.2C1065.17,2852.66 1112.02,2846.43 1139.04,2856.18C1167.71,2866.53 1188.36,2894.5 1184.8,2901.85C1184.8,2901.85 1200.29,2896.68 1240.74,2896.55C1281.72,2896.41 1291.93,2900.68 1291.93,2900.68C1291.93,2900.68 1306.81,2872.08 1336.68,2860.55C1363.06,2850.36 1413.59,2855.09 1426.68,2864.75C1448.71,2881.01 1468.08,2887.28 1465.15,2935.42C1463.87,2956.36 1439.78,2985.73 1439.78,2985.73C1439.78,2985.73 1463.42,3005.68 1472.51,3022.99C1481.6,3040.31 1514.3,3095.13 1468.24,3139.38C1417.57,3188.05 1299.25,3239.12 1159.76,3206.86Z" style="fill:rgb(46,178,43);stroke:black;stroke-width:7.73px;"/>
            </g>
        </g>
        <g transform="matrix(-1,0,0,1,1672.51,165.237)">
            <clipPath id="_clip2">
                <rect x="983.276" y="2842.88" width="264.205" height="374.079"/>
            </clipPath>
            <g clip-path="url(#_clip2)">
                <path d="M1159.76,3206.86C1159.76,3206.86 1041.53,3164.89 1022.02,3139.86C1002.51,3114.83 984.489,3068.82 1021.7,3025.28C1058.91,2981.75 1054.96,2986.01 1054.96,2986.01C1054.96,2986.01 1013.55,2936.64 1045.16,2885.2C1065.17,2852.66 1112.02,2846.43 1139.04,2856.18C1167.71,2866.53 1188.36,2894.5 1184.8,2901.85C1184.8,2901.85 1200.29,2896.68 1240.74,2896.55C1281.72,2896.41 1291.93,2900.68 1291.93,2900.68C1291.93,2900.68 1306.81,2872.08 1336.68,2860.55C1363.06,2850.36 1413.59,2855.09 1426.68,2864.75C1448.71,2881.01 1468.08,2887.28 1465.15,2935.42C1463.87,2956.36 1439.78,2985.73 1439.78,2985.73C1439.78,2985.73 1463.42,3005.68 1472.51,3022.99C1481.6,3040.31 1514.3,3095.13 1468.24,3139.38C1417.57,3188.05 1299.25,3239.12 1159.76,3206.86Z" style="fill:rgb(46,178,43);stroke:black;stroke-width:7.73px;"/>
            </g>
        </g>
        <g transform="matrix(7.9976,0,0,5.14059,-213.216,2743.49)">
            <ellipse cx="63.182" cy="66.353" rx="6.671" ry="8.534" style="fill:white;stroke:black;stroke-width:1.1px;stroke-linecap:butt;stroke-linejoin:miter;stroke-miterlimit:10;"/>
        </g>
        <g transform="matrix(7.9976,0,0,5.14059,55.1548,2743.49)">
            <ellipse cx="63.182" cy="66.353" rx="6.671" ry="8.534" style="fill:white;stroke:black;stroke-width:1.1px;stroke-linecap:butt;stroke-linejoin:miter;stroke-miterlimit:10;"/>
        </g>
        <g transform="matrix(6.73208,0,0,6.73208,-136.806,2622.78)">
            <ellipse cx="63.62" cy="69.314" rx="2.692" ry="4.207"/>
        </g>
        <g transform="matrix(6.73208,0,0,6.73208,130.293,2622.78)">
            <ellipse cx="63.62" cy="69.314" rx="2.692" ry="4.207"/>
        </g>
        <g transform="matrix(6.13992,0,0,5.01405,-31.1533,2905.66)">
            <ellipse cx="74.626" cy="88.643" rx="29.221" ry="17.532" style="fill:rgb(46,178,43);stroke:black;stroke-width:1.32px;stroke-linecap:butt;stroke-linejoin:miter;stroke-miterlimit:10;"/>
        </g>
        <g transform="matrix(1,0,0,1,0,-60)">
            <path d="M349.82,3250.68C349.82,3250.68 406.131,3226.47 505.901,3250.92" style="fill:none;stroke:black;stroke-width:7.73px;"/>
        </g>
        <g transform="matrix(0.586319,0,0,0.553701,177.537,1414.88)">
            <path d="M349.82,3250.68C349.82,3250.68 418.018,3228.41 505.901,3250.92" style="fill:none;stroke:black;stroke-width:13.57px;"/>
        </g>
        <g transform="matrix(1.65481,-0.573542,0.573542,1.65481,-1621.11,-1700.56)">
            <ellipse cx="114.079" cy="3071.9" rx="22.529" ry="13.817"/>
        </g>
        <g transform="matrix(1.66366,0.547338,-0.547338,1.66366,2021.96,-1855.61)">
            <ellipse cx="114.079" cy="3071.9" rx="22.529" ry="13.817"/>
        </g>
        <g transform="matrix(1.13507,0,0,1.1215,-59.3384,-415.191)">
            <path d="M296.541,3426.83L313.669,3386.63L335.935,3439.96L357.698,3396.55L378.621,3445.11L395.253,3400.58L416.47,3446.5L435.712,3401.33L455.815,3444.02L473.514,3398.41L497.133,3437.86L511.686,3391.72L531.271,3430.91L546.067,3383.45L565.169,3420.62L581.316,3371.78L548.173,3382.95L511.686,3391.72L469.315,3399.14L445.129,3401.03L416.617,3401.91L380.425,3399.65L361.664,3397.13L341.183,3393.43L327.671,3390.24L306.599,3384.34L287.248,3377.84L275.364,3372.84L296.541,3426.83Z" style="fill:white;stroke:black;stroke-width:6.85px;"/>
        </g>
        <g transform="matrix(6.0511,0,0,4.40974,-2845.41,2987.6)">
            <path d="M511.4,85.643C540.621,103.175 569.842,85.643 569.842,85.643" style="fill:none;stroke:black;stroke-width:1.4px;stroke-linecap:butt;stroke-linejoin:miter;stroke-miterlimit:10;"/>
        </g>
    </g>
</svg>
